<?xml version="1.0" standalone="no"?>
<!DOCTYPE svg PUBLIC "-//W3C//DTD SVG 20010904//EN"
 "http://www.w3.org/TR/2001/REC-SVG-20010904/DTD/svg10.dtd">
<svg version="1.0" xmlns="http://www.w3.org/2000/svg"
 width="307.000000pt" height="345.000000pt" viewBox="0 0 307.000000 345.000000"
 preserveAspectRatio="xMidYMid meet">

<g transform="translate(0.000000,345.000000) scale(0.100000,-0.100000)"
fill="#000000" stroke="none">
<path d="M1551 3254 c-29 -37 -26 -70 8 -105 31 -31 59 -36 94 -17 50 26 61
77 26 122 -16 21 -29 26 -64 26 -35 0 -48 -5 -64 -26z"/>
<path d="M1545 3068 c-84 -30 -147 -98 -190 -204 -20 -49 -30 -60 -67 -78 -46
-23 -82 -68 -98 -125 -12 -45 -13 -122 -1 -154 8 -21 15 -23 63 -23 l53 1 -5
30 c-9 58 -3 124 14 151 15 22 23 25 49 20 45 -9 94 -51 137 -118 21 -32 40
-63 42 -68 2 -4 34 -10 73 -12 l70 -3 25 45 c41 75 78 116 125 141 35 19 49
22 62 13 34 -21 44 -55 39 -130 l-5 -70 45 -3 c25 -1 52 3 60 10 17 14 19 125
3 182 -13 49 -61 103 -103 117 -28 9 -37 20 -55 66 -64 169 -206 258 -336 212z
m150 -133 c44 -33 105 -153 84 -165 -47 -27 -84 -62 -120 -112 l-42 -56 -43
59 c-24 32 -62 70 -84 85 -22 15 -40 33 -40 40 0 47 61 138 109 165 45 24 91
19 136 -16z"/>
<path d="M1160 2375 l0 -55 49 0 c43 0 52 -4 79 -34 33 -38 68 -122 74 -176 2
-30 0 -35 -19 -38 -21 -3 -23 -9 -23 -58 l0 -54 214 0 213 0 7 -91 c4 -50 5
-94 2 -97 -3 -2 -22 10 -43 28 -91 81 -265 130 -393 113 -98 -14 -186 -48
-207 -80 -16 -24 -16 -28 11 -79 16 -30 26 -59 23 -66 -3 -7 -87 -114 -186
-238 -117 -145 -181 -233 -181 -248 0 -34 87 -190 111 -197 12 -4 63 12 137
44 64 28 120 51 124 51 11 0 -22 -102 -48 -147 -32 -55 -103 -117 -181 -155
-35 -17 -69 -40 -75 -51 -18 -35 9 -151 58 -244 l43 -83 -39 0 -40 0 0 -60 0
-60 700 0 700 0 0 60 0 60 -54 0 -55 0 35 58 c43 71 74 169 74 233 0 46 -2 50
-38 68 -58 30 -134 119 -184 218 -103 201 -162 473 -175 801 -6 161 -6 162 15
162 20 0 22 5 22 55 0 44 -3 55 -16 55 -14 0 -16 8 -11 50 7 60 34 124 71 168
24 27 34 32 72 32 l44 0 0 55 0 55 -455 0 -455 0 0 -55z m649 -112 c-16 -32
-33 -88 -40 -126 l-12 -68 -136 3 -135 3 -13 64 c-7 35 -24 89 -38 119 -14 30
-25 56 -25 58 0 2 96 4 213 4 l214 0 -28 -57z m-295 -480 c146 -51 248 -171
276 -323 27 -147 -39 -311 -157 -391 -26 -18 -49 -33 -51 -34 -6 -5 42 -95 50
-95 35 0 152 104 197 175 l27 43 38 -96 c55 -140 109 -227 192 -309 l73 -72
-11 -38 c-16 -59 -52 -124 -98 -175 l-42 -48 -454 0 -454 0 -41 52 c-45 56
-85 135 -95 185 -6 28 -3 32 53 63 141 80 252 253 253 396 0 46 21 59 60 39
30 -15 31 -18 24 -63 -24 -166 -122 -328 -241 -399 -24 -14 -43 -29 -43 -34 0
-16 40 -89 49 -89 4 0 35 17 67 38 131 85 237 251 271 428 l18 90 48 12 c103
24 191 123 204 229 8 69 -19 154 -63 201 l-34 37 -35 -39 -34 -38 26 -39 c36
-54 36 -123 1 -177 -50 -75 -142 -93 -228 -45 l-49 27 -178 -78 c-98 -43 -183
-80 -189 -82 -5 -3 -17 10 -26 29 l-16 33 189 238 c104 130 189 244 189 252 0
8 -9 32 -20 54 -23 45 -20 48 48 60 57 10 153 2 206 -17z"/>
<path d="M1280 1513 c-72 -47 -83 -66 -61 -102 7 -11 18 -8 59 14 70 38 96 67
88 99 -8 34 -20 32 -86 -11z"/>
<path d="M760 190 l0 -59 810 0 810 0 0 59 0 60 -810 0 -810 0 0 -60z"/>
</g>
</svg>
